<svg xmlns="http://www.w3.org/2000/svg" xmlns:xlink="http://www.w3.org/1999/xlink" width="460" zoomAndPan="magnify" viewBox="0 0 345 60" height="80" preserveAspectRatio="xMidYMid meet" version="1.0"><defs><g/><clipPath id="8e1510e8ae"><path d="M 39.820312 4.421875 L 90.820312 4.421875 L 90.820312 55.421875 L 39.820312 55.421875 Z M 39.820312 4.421875 " clip-rule="nonzero"/></clipPath><clipPath id="74626d3f61"><path d="M 49.871094 14.476562 L 80.621094 14.476562 L 80.621094 20.476562 L 49.871094 20.476562 Z M 49.871094 14.476562 " clip-rule="nonzero"/></clipPath><clipPath id="71708b7a96"><path d="M 74.910156 14.472656 L 80.910156 14.472656 L 80.910156 45.222656 L 74.910156 45.222656 Z M 74.910156 14.472656 " clip-rule="nonzero"/></clipPath><clipPath id="697ce2fa37"><path d="M 43 17 L 79 17 L 79 52 L 43 52 Z M 43 17 " clip-rule="nonzero"/></clipPath><clipPath id="18de3c1026"><path d="M 78.824219 21.578125 L 47.46875 51.730469 L 43.308594 47.402344 L 74.667969 17.253906 Z M 78.824219 21.578125 " clip-rule="nonzero"/></clipPath><clipPath id="ed1d8262b5"><path d="M 39 39 L 56 39 L 56 56 L 39 56 Z M 39 39 " clip-rule="nonzero"/></clipPath><clipPath id="53873e2d7e"><path d="M 44.585938 39.402344 L 55.203125 51.039062 L 50.214844 55.585938 L 39.597656 43.953125 Z M 44.585938 39.402344 " clip-rule="nonzero"/></clipPath></defs><g clip-path="url(#8e1510e8ae)"><path fill="#000000" d="M 45.488281 4.421875 C 42.371094 4.421875 39.820312 6.972656 39.820312 10.089844 L 39.820312 49.757812 C 39.820312 52.875 42.371094 55.421875 45.488281 55.421875 L 85.15625 55.421875 C 88.269531 55.421875 90.820312 52.875 90.820312 49.757812 L 90.820312 10.089844 C 90.820312 6.972656 88.269531 4.421875 85.15625 4.421875 Z M 85.15625 49.757812 L 45.488281 49.757812 L 45.488281 10.089844 L 85.15625 10.089844 Z M 85.15625 49.757812 " fill-opacity="1" fill-rule="nonzero"/></g><g clip-path="url(#74626d3f61)"><path fill="#000000" d="M 49.890625 14.476562 L 80.597656 14.476562 L 80.597656 20.476562 L 49.890625 20.476562 L 49.890625 14.476562 " fill-opacity="1" fill-rule="nonzero"/></g><g fill="#000000" fill-opacity="1"><g transform="translate(103.726008, 43.257818)"><g><path d="M 23.15625 -28.1875 L 30.59375 -28.1875 L 17.75 0 L 11.921875 0 L -0.921875 -28.1875 L 6.71875 -28.1875 L 14.921875 -9.15625 Z M 23.15625 -28.1875 "/></g></g></g><g fill="#000000" fill-opacity="1"><g transform="translate(133.434297, 43.257818)"><g><path d="M 2.5625 0 L 2.5625 -28.1875 L 22.59375 -28.1875 L 22.59375 -22.515625 L 9.71875 -22.515625 L 9.71875 -17.15625 L 21.796875 -17.15625 L 21.796875 -11.515625 L 9.71875 -11.515625 L 9.71875 -5.671875 L 22.59375 -5.671875 L 22.59375 0 Z M 2.5625 0 "/></g></g></g><g fill="#000000" fill-opacity="1"><g transform="translate(157.304886, 43.257818)"><g><path d="M 27.90625 0 L 19.828125 0 L 14.953125 -9 C 14.335938 -10.039062 13.363281 -10.5625 12.03125 -10.5625 L 9.796875 -10.5625 L 9.796875 0 L 2.5625 0 L 2.5625 -28.1875 L 16 -28.1875 C 19.40625 -28.1875 21.96875 -27.445312 23.6875 -25.96875 C 25.40625 -24.488281 26.265625 -22.347656 26.265625 -19.546875 C 26.265625 -17.421875 25.675781 -15.617188 24.5 -14.140625 C 23.332031 -12.660156 21.679688 -11.664062 19.546875 -11.15625 C 21.171875 -10.8125 22.46875 -9.757812 23.4375 -8 Z M 14.828125 -16.078125 C 16.453125 -16.078125 17.617188 -16.328125 18.328125 -16.828125 C 19.035156 -17.335938 19.390625 -18.164062 19.390625 -19.3125 C 19.390625 -20.488281 19.035156 -21.332031 18.328125 -21.84375 C 17.617188 -22.363281 16.453125 -22.625 14.828125 -22.625 L 9.71875 -22.625 L 9.71875 -16.078125 Z M 14.828125 -16.078125 "/></g></g></g><g fill="#000000" fill-opacity="1"><g transform="translate(185.573736, 43.257818)"><g><path d="M 21.46875 -14.640625 C 23.125 -14.128906 24.390625 -13.28125 25.265625 -12.09375 C 26.148438 -10.90625 26.59375 -9.445312 26.59375 -7.71875 C 26.59375 -6.164062 26.1875 -4.8125 25.375 -3.65625 C 24.5625 -2.5 23.398438 -1.597656 21.890625 -0.953125 C 20.378906 -0.316406 18.613281 0 16.59375 0 L 2.5625 0 L 2.5625 -28.1875 L 16.1875 -28.1875 C 19.144531 -28.1875 21.5 -27.523438 23.25 -26.203125 C 25 -24.890625 25.875 -23.113281 25.875 -20.875 C 25.875 -19.4375 25.484375 -18.160156 24.703125 -17.046875 C 23.929688 -15.941406 22.851562 -15.140625 21.46875 -14.640625 Z M 9.71875 -17.109375 L 14.953125 -17.109375 C 16.335938 -17.109375 17.347656 -17.320312 17.984375 -17.75 C 18.628906 -18.175781 18.953125 -18.859375 18.953125 -19.796875 C 18.953125 -20.773438 18.628906 -21.488281 17.984375 -21.9375 C 17.347656 -22.394531 16.335938 -22.625 14.953125 -22.625 L 9.71875 -22.625 Z M 15.671875 -5.5625 C 17.140625 -5.5625 18.1875 -5.789062 18.8125 -6.25 C 19.4375 -6.71875 19.75 -7.488281 19.75 -8.5625 C 19.75 -9.625 19.4375 -10.390625 18.8125 -10.859375 C 18.1875 -11.328125 17.140625 -11.5625 15.671875 -11.5625 L 9.71875 -11.5625 L 9.71875 -5.5625 Z M 15.671875 -5.5625 "/></g></g></g><g fill="#000000" fill-opacity="1"><g transform="translate(213.362782, 43.257818)"><g><path d="M 37.34375 -28.1875 L 44.296875 -28.1875 L 34.234375 0 L 28.390625 0 L 22.4375 -16.90625 L 16.390625 0 L 10.515625 0 L 0.484375 -28.1875 L 7.953125 -28.1875 L 13.796875 -10.3125 L 20.109375 -28.1875 L 25.1875 -28.1875 L 31.234375 -10 Z M 37.34375 -28.1875 "/></g></g></g><g fill="#000000" fill-opacity="1"><g transform="translate(258.185099, 43.257818)"><g><path d="M 2.5625 0 L 2.5625 -28.1875 L 9.921875 -28.1875 L 9.921875 0 Z M 2.5625 0 "/></g></g></g><g fill="#000000" fill-opacity="1"><g transform="translate(270.660188, 43.257818)"><g><path d="M 27.90625 0 L 19.828125 0 L 14.953125 -9 C 14.335938 -10.039062 13.363281 -10.5625 12.03125 -10.5625 L 9.796875 -10.5625 L 9.796875 0 L 2.5625 0 L 2.5625 -28.1875 L 16 -28.1875 C 19.40625 -28.1875 21.96875 -27.445312 23.6875 -25.96875 C 25.40625 -24.488281 26.265625 -22.347656 26.265625 -19.546875 C 26.265625 -17.421875 25.675781 -15.617188 24.5 -14.140625 C 23.332031 -12.660156 21.679688 -11.664062 19.546875 -11.15625 C 21.171875 -10.8125 22.46875 -9.757812 23.4375 -8 Z M 14.828125 -16.078125 C 16.453125 -16.078125 17.617188 -16.328125 18.328125 -16.828125 C 19.035156 -17.335938 19.390625 -18.164062 19.390625 -19.3125 C 19.390625 -20.488281 19.035156 -21.332031 18.328125 -21.84375 C 17.617188 -22.363281 16.453125 -22.625 14.828125 -22.625 L 9.71875 -22.625 L 9.71875 -16.078125 Z M 14.828125 -16.078125 "/></g></g></g><g fill="#000000" fill-opacity="1"><g transform="translate(298.929039, 43.257818)"><g><path d="M 2.5625 0 L 2.5625 -28.1875 L 22.59375 -28.1875 L 22.59375 -22.515625 L 9.71875 -22.515625 L 9.71875 -17.15625 L 21.796875 -17.15625 L 21.796875 -11.515625 L 9.71875 -11.515625 L 9.71875 -5.671875 L 22.59375 -5.671875 L 22.59375 0 Z M 2.5625 0 "/></g></g></g><g clip-path="url(#71708b7a96)"><path fill="#000000" d="M 80.910156 14.496094 L 80.910156 45.203125 L 74.910156 45.203125 L 74.910156 14.496094 L 80.910156 14.496094 " fill-opacity="1" fill-rule="nonzero"/></g><g clip-path="url(#697ce2fa37)"><g clip-path="url(#18de3c1026)"><path fill="#000000" d="M 78.804688 21.601562 L 47.492188 51.707031 L 43.332031 47.382812 L 74.644531 17.273438 L 78.804688 21.601562 " fill-opacity="1" fill-rule="nonzero"/></g></g><g clip-path="url(#ed1d8262b5)"><g clip-path="url(#53873e2d7e)"><path fill="#000000" d="M 44.589844 39.410156 L 55.195312 51.03125 L 50.210938 55.582031 L 39.605469 43.960938 L 44.589844 39.410156 " fill-opacity="1" fill-rule="nonzero"/></g></g></svg>